<svg width="207" height="266" xmlns="http://www.w3.org/2000/svg" xmlns:xlink="http://www.w3.org/1999/xlink" overflow="hidden"><g transform="translate(-537 -257)"><path d="M711.203 288.797C750.527 328.122 750.527 391.878 711.203 431.203 684.715 457.69 660.981 486.932 640 518.927 619.019 486.932 595.285 457.69 568.797 431.203 529.473 391.878 529.473 328.122 568.797 288.797 608.122 249.473 671.878 249.473 711.203 288.797Z" stroke="#FFFFFF" stroke-width="4" stroke-miterlimit="8" fill="#3498DB" fill-rule="evenodd"/><path d="M569 360C569 320.788 600.788 289 640 289 679.212 289 711 320.788 711 360 711 399.212 679.212 431 640 431 600.788 431 569 399.212 569 360Z" fill="#FFFFFF" fill-rule="evenodd"/><path d="M610 360 627.896 347.896 640 330 652.104 347.896 670 360 652.104 372.104 640 390 627.896 372.104Z" fill="#3498DB" fill-rule="evenodd"/></g></svg>